<svg xmlns="http://www.w3.org/2000/svg" width="50" height="50" viewBox="0 0 50 50" fill="none"><g clip-path="url(#clip0)"><path d="M44.3491 7.96005L39.7304 3.34197C35.2755 -1.11292 28.025 -1.11507 23.5681 3.34197C19.5033 7.40624 19.1461 13.7952 22.4955 18.2682L2.78722 37.9771C2.14952 38.6143 2.14952 39.6481 2.78722 40.2859L7.4048 44.904C8.0422 45.5414 9.07619 45.5414 9.71359 44.904L10.8685 43.7491L16.641 49.5219C17.2785 50.1594 18.3124 50.1594 18.9498 49.5219L22.4134 46.0584L18.9498 42.5956C18.3121 41.9579 18.3121 40.9241 18.9498 40.2863C19.5875 39.6484 20.6208 39.6491 21.2586 40.2857L24.7227 43.749L28.186 40.2857C28.8234 39.6483 28.8234 38.6143 28.186 37.9769L22.4131 32.2043L29.4221 25.1953C33.8972 28.5443 40.2857 28.1881 44.3494 24.1228C48.8051 19.667 48.8051 12.4159 44.3491 7.96005ZM39.7305 19.5054C38.0262 21.2097 35.4235 21.3712 33.5513 20.119C32.9262 19.7001 28.7177 15.419 28.1857 14.8868C26.2766 12.9771 26.2766 9.87011 28.1846 7.96054C28.1857 7.95995 28.1857 7.95995 28.1857 7.95995C30.0937 6.05028 33.2029 6.04921 35.113 7.95937C35.7002 8.54667 39.9279 12.7017 40.3449 13.325C41.6034 15.2051 41.4294 17.8076 39.7305 19.5054Z" fill="#1CBA6E"></path></g><defs><clipPath id="clip0"><rect width="50" height="50" fill="white"></rect></clipPath></defs></svg>