<svg xmlns="http://www.w3.org/2000/svg" width="50" height="50" viewBox="0 0 50 50" fill="none"><path d="M14.0625 28.125H4.6875C3.82456 28.125 3.125 28.8246 3.125 29.6875V45.3125C3.125 46.1754 3.82456 46.875 4.6875 46.875H14.0625C14.9254 46.875 15.625 46.1754 15.625 45.3125V29.6875C15.625 28.8246 14.9254 28.125 14.0625 28.125Z" fill="#9719FF"></path><path d="M45.3125 15.625H35.9375C35.0746 15.625 34.375 16.3246 34.375 17.1875V45.3125C34.375 46.1754 35.0746 46.875 35.9375 46.875H45.3125C46.1754 46.875 46.875 46.1754 46.875 45.3125V17.1875C46.875 16.3246 46.1754 15.625 45.3125 15.625Z" fill="#9719FF"></path><path d="M29.6875 3.125H20.3125C19.4496 3.125 18.75 3.82456 18.75 4.6875V45.3125C18.75 46.1754 19.4496 46.875 20.3125 46.875H29.6875C30.5504 46.875 31.25 46.1754 31.25 45.3125V4.6875C31.25 3.82456 30.5504 3.125 29.6875 3.125Z" fill="#9719FF"></path></svg>