<svg xmlns="http://www.w3.org/2000/svg" width="50" height="50" viewBox="0 0 50 50" fill="none"><path d="M24.9999 1.56142C12.065 1.56142 1.56239 12.064 1.56239 24.9989C1.56239 37.9338 12.065 48.4364 24.9999 48.4364C37.9348 48.4364 48.4374 37.9338 48.4374 24.9989C48.4374 21.4038 47.6239 17.997 46.1745 14.9509L43.8475 17.2779C43.4082 17.7198 42.809 17.969 42.1859 17.9691H41.5389C42.4598 20.1293 42.9702 22.5048 42.9702 24.9989C42.9702 34.9135 34.9145 42.9691 24.9999 42.9691C15.0853 42.9691 7.02961 34.9135 7.02961 24.9989C7.02961 15.0843 15.0853 7.02854 24.9999 7.02854C27.4945 7.02854 29.8706 7.53857 32.0311 8.45986V7.81286C32.0313 7.18971 32.2805 6.59062 32.7224 6.15122L35.0478 3.82428C32.0018 2.37489 28.595 1.56142 24.9999 1.56142ZM39.8223 1.56142C39.6223 1.56738 39.4323 1.64973 39.2913 1.79165L33.8241 7.25886C33.751 7.33146 33.6931 7.41783 33.6536 7.51288C33.614 7.60794 33.5937 7.70982 33.5936 7.81277V12.9596L23.2772 23.2761C22.3315 24.2218 22.3315 25.7804 23.2772 26.7261C24.2229 27.6718 25.7769 27.6672 26.7226 26.7201L37.0376 16.4052H42.1859C42.2888 16.4052 42.3907 16.3849 42.4858 16.3454C42.5809 16.3059 42.6672 16.248 42.7398 16.175L48.207 10.7077C48.3158 10.5982 48.3897 10.4591 48.4195 10.3077C48.4492 10.1563 48.4335 9.99942 48.3743 9.85694C48.315 9.71446 48.2149 9.5927 48.0866 9.50704C47.9582 9.42138 47.8074 9.37563 47.6531 9.37557H44.0673L44.6898 8.75308C45.6355 7.80737 45.6401 6.25331 44.6946 5.3076C44.2217 4.83474 43.5949 4.59807 42.9688 4.59807C42.3427 4.59807 41.7174 4.83486 41.2445 5.3076L40.6235 5.92864V2.33826C40.6231 2.23424 40.6019 2.13132 40.5613 2.03558C40.5206 1.93984 40.4612 1.85323 40.3866 1.78075C40.312 1.70826 40.2236 1.65139 40.1267 1.6135C40.0299 1.57561 39.9264 1.55743 39.8224 1.56006L39.8223 1.56142ZM24.9999 12.4958C18.1056 12.4958 12.4968 18.1046 12.4968 24.9989C12.4968 31.8932 18.1056 37.4959 24.9999 37.4959C31.8942 37.4959 37.4968 31.8932 37.4968 24.9989C37.4968 23.0099 37.0198 21.1341 36.1907 19.4629L31.9106 23.743C31.9847 24.1512 32.0296 24.5698 32.0296 24.9989C32.0296 28.8729 28.8739 32.0286 24.9999 32.0286C21.1259 32.0286 17.9702 28.8729 17.9702 24.9989C17.9702 21.1249 21.1259 17.9691 24.9999 17.9691C25.429 17.9691 25.8475 18.014 26.2557 18.0881L30.5373 13.8065C28.866 12.9757 26.9902 12.4958 24.9999 12.4958L24.9999 12.4958Z" fill="#FF5F2D"></path></svg>